# xmcd
# 
# Track frame offsets:
#     150
#     9993
#     20363
#     30598
#     41751
#     50978
#     61431
#     70010
#     80659
#     90722
#     100925
#     110371
#     123049
#     134603
#     144859
#     153737
#     165782
#     177312
#     187748
#     200191
#     211252
#     222029
#     231058
#     243965
#     253564
#     265760
#     276910
#     289633
# 
# Disc length: 4002
# 
# Revision: 1
# Processed by: cddbd v1.5.2PL0 Copyright (c) Steve Scherf et al.
# Submitted via: fre:ac v1.0.31
# 
DISCID=870fa01c
DTITLE=R&B - The Sweet Sound of Philadelphia Soul, 1959-1964 Disc 1
DYEAR=2015
DGENRE=R&B
TTITLE0=The Intruders - Come Home Soon
TTITLE1=Clarence Willams - Royal Queen
TTITLE2=Herb Johnson and the Cruisers - Guilty
TTITLE3=Solomon Burke - It's All Right
TTITLE4=Bunny Sigler - I Won't Cry
TTITLE5=The Bobby Peterson Quintet - One Day
TTITLE6=The Larks - I Can't Believe It
TTITLE7=Bobby Parker - Steal Your Heart Away
TTITLE8=The Blue Notes - A Good Woman
TTITLE9=Geno and Rabbit - Deep in the Night
TTITLE10=Good Rockin' Sammy T - Good Rockin' Mama
TTITLE11=Lenny O'Henry - Cheated Heart
TTITLE12=Donnie Elbert - Will You Ever Be Mine
TTITLE13=The Lavenders - The Slide
TTITLE14=The Tams - Disillusioned
TTITLE15=Herb Johnson - That's the Way Life Goes
TTITLE16=Ruby Johnson - Callin' All Boys
TTITLE17=Four Intruders - This is My Song
TTITLE18=Little Joe Cook and The Thrillers - Cherry, Part 1
TTITLE19=Anna King - In Between Tears
TTITLE20=The Gainors - She's Gone
TTITLE21=The Bobby Peterson Quintet - Mama Get Your Hammer
TTITLE22=Bobby Bennett - Alone with My Tears
TTITLE23=Clarence Williams - Love Me
TTITLE24=Claudine Clark - The Telephone Game
TTITLE25=Sammy Taylor - Could This Be Love
TTITLE26=The Mohawks - Bewitched
TTITLE27=Carrie Grant - Mish Mash
EXTD=
EXTT0=
EXTT1=
EXTT2=
EXTT3=
EXTT4=
EXTT5=
EXTT6=
EXTT7=
EXTT8=
EXTT9=
EXTT10=
EXTT11=
EXTT12=
EXTT13=
EXTT14=
EXTT15=
EXTT16=
EXTT17=
EXTT18=
EXTT19=
EXTT20=
EXTT21=
EXTT22=
EXTT23=
EXTT24=
EXTT25=
EXTT26=
EXTT27=
PLAYORDER=
